<svg width="46" height="48" viewBox="0 0 46 48" fill="none" xmlns="http://www.w3.org/2000/svg">
<g clip-path="url(#clip0_1527_61)">
<path d="M5.64785 9.54219L7.88422 7.13114C8.25062 6.73612 8.87679 6.75957 9.15562 7.22121C10.9732 10.2309 13.2985 17.5995 11.4914 29.0941C11.4746 29.2006 11.3188 29.2013 11.3079 29.0941C10.7911 24.0096 9.08043 14.6022 5.69149 10.8999C5.34295 10.5192 5.29681 9.92059 5.64785 9.54219Z" fill="#FF8904"/>
<path d="M0.465271 16.7953L1.86146 13.9672C2.11224 13.4592 2.76729 13.3138 3.16463 13.7164C8.49387 19.117 8.10028 31.0566 7.04863 37.6759L7.04559 37.695C7.01749 37.872 6.76163 37.8547 6.75026 37.6759C5.99251 25.7623 2.95465 19.9988 0.894711 18.2671C0.474535 17.9139 0.221821 17.2884 0.465271 16.7953Z" fill="#FF8904"/>
<path d="M26.7337 41.7867C26.6291 42.3386 26.2926 42.8788 26.0867 43.3632C26.6819 44.4418 28.1749 46.0464 29.3848 43.8349C29.4326 42.8285 29.4027 41.9628 29.5292 41.115C30.0864 37.2352 30.6773 33.3595 31.2744 29.4857C31.4689 28.2246 32.3492 27.5485 33.281 28.0142C31.5706 30.6167 31.5601 32.7954 34.6437 33.9061C36.8928 34.1287 38.2258 33.0294 38.9205 31.4699C39.53 30.091 39.7222 28.4778 39.8573 26.9458C39.954 25.8823 39.7789 24.7449 39.4979 23.7059C39.1098 22.2658 38.3353 21.0429 36.6567 20.8307C34.7184 20.5845 32.9278 22.8669 33.4379 24.7222C33.5055 25.0831 33.561 25.4204 33.6011 25.8634C31.3001 26.2024 30.5798 27.7507 30.3131 29.7853C29.7265 34.2518 29.046 38.7052 28.4099 43.1643C28.3982 43.3461 28.3534 43.5485 28.3316 43.6966L27.3765 43.5547C27.3923 43.4039 27.4001 43.2709 27.42 43.1361C28.1309 38.3036 28.7933 33.4632 29.5818 28.6433C29.8525 26.9873 28.8419 26.1699 27.895 25.207C27.7464 25.0855 27.7112 25.0386 27.5835 24.8952C28.8717 23.0722 28.505 20.7713 26.8425 19.5652C25.8336 18.8306 23.8908 19.3579 22.9799 20.4147C21.4516 22.203 20.671 24.2963 20.6382 26.565C20.6188 27.9193 20.6715 28.2652 21.0571 29.637C21.0711 29.6801 21.1758 29.9212 21.303 30.2004C21.5764 30.8002 22.0352 31.2815 22.5915 31.6318C23.1502 31.9836 23.7833 32.2226 24.4427 32.2167C25.6744 32.2058 26.5853 31.865 27.0128 30.829C27.4719 29.7169 27.6871 28.4914 27.5791 26.9795C27.9517 27.3069 28.5686 27.8826 28.5235 28.3491C28.2314 31.4034 27.794 34.4443 27.3869 37.4879L27.3809 37.5329C27.1915 38.9545 27.0017 40.3786 26.7337 41.7867Z" fill="white"/>
<path fill-rule="evenodd" clip-rule="evenodd" d="M15.5361 0C15.8359 10.3756 14.9774 34.4261 9.14551 47.6229H39.5105C42.4124 41.8935 47.6691 26.3897 45.4802 10.2091L15.5361 0ZM29.7524 39.9901C36.695 39.9901 42.3231 34.154 42.3231 26.9549C42.3231 19.7557 36.695 13.9196 29.7524 13.9196C22.8096 13.9196 17.1815 19.7557 17.1815 26.9549C17.1815 34.154 22.8096 39.9901 29.7524 39.9901Z" fill="white"/>
</g>
<defs>
<clipPath id="clip0_1527_61">
<rect width="46" height="48" fill="white"/>
</clipPath>
</defs>
</svg>
